<svg xmlns="http://www.w3.org/2000/svg" width="368.49" height="412" viewBox="0 0 368.49 412">
  <title>logo</title>
  <path d="M277,238a235.06,235.06,0,0,0-27.88,11.12L293,401.75h32.26Z" fill="#fff"/>
  <path d="M357.7,188.94a323.72,323.72,0,0,0-50.93-4.07A319.19,319.19,0,0,0,262.3,188L206.92,0H177.71L105.78,242.8q4.07-3.13,8.24-6.14A332.67,332.67,0,0,1,143,218L184.9,70.32Q186.42,65,188.06,58T191,42h0.87a150.62,150.62,0,0,0,2.72,16q1.63,7,3.16,12.33l35.39,123.15A321,321,0,0,0,4.84,398.33L0,412H109.51l1.9-7.83a245.51,245.51,0,0,1,134.87-165h0a245.39,245.39,0,0,1,27.85-11v0A247.65,247.65,0,0,1,350.87,216c0.57,0,1.14,0,1.71,0l1.81,0,8.3,0.11,5.8-25.58Z" fill="#fff"/>
</svg>
